<?xml version="1.0" encoding="UTF-8" standalone="no"?><svg xmlns="http://www.w3.org/2000/svg" xmlns:xlink="http://www.w3.org/1999/xlink" contentStyleType="text/css" height="547px" preserveAspectRatio="none" style="width:561px;height:547px;background:#FFFFFF;" version="1.1" viewBox="0 0 561 547" width="561px" zoomAndPan="magnify"><defs/><g><!--MD5=[359537f366b8bb5eb5abd913e65f0a43]
cluster abstract-factory--><g id="cluster_abstract-factory"><path d="M8.5,162 L136.5,162 A3.75,3.75 0 0 1 139,164.5 L146,184.2969 L534.5,184.2969 A2.5,2.5 0 0 1 537,186.7969 L537,537.5 A2.5,2.5 0 0 1 534.5,540 L8.5,540 A2.5,2.5 0 0 1 6,537.5 L6,164.5 A2.5,2.5 0 0 1 8.5,162 " fill="none" style="stroke:#000000;stroke-width:1.5;"/><line style="stroke:#000000;stroke-width:1.5;" x1="6" x2="146" y1="184.2969" y2="184.2969"/><text fill="#000000" font-family="sans-serif" font-size="14" font-weight="bold" lengthAdjust="spacing" textLength="127" x="10" y="176.9951">abstract-factory</text></g><!--MD5=[450f67c793b5fc856f9ea5f48e240f3b]
class abstract-factory.concreteFactory--><g id="elem_abstract-factory.concreteFactory"><rect codeLine="7" fill="#F1F1F1" height="80.5938" id="abstract-factory.concreteFactory" rx="2.5" ry="2.5" style="stroke:#181818;stroke-width:0.5;" width="246" x="275" y="406.5"/><ellipse cx="337.75" cy="422.5" fill="#7FFFD4" rx="11" ry="11" style="stroke:#181818;stroke-width:1.0;"/><path d="M337.2344,423.0625 Q335.375,422.3594 334.7188,421.5938 Q334.0781,420.8125 334.0781,419.5 Q334.0781,417.8125 335.1563,416.8438 Q336.2344,415.875 338.1094,415.875 Q338.9688,415.875 339.8125,416.0781 Q340.6719,416.2656 341.5156,416.6563 L341.5156,419.0469 Q340.7344,418.4844 339.9063,418.2031 Q339.0938,417.9063 338.2969,417.9063 Q337.4219,417.9063 336.9375,418.2656 Q336.4688,418.625 336.4688,419.2813 Q336.4688,419.7969 336.8125,420.1406 Q337.1563,420.4688 338.25,420.875 L339.3125,421.2813 Q340.7969,421.8281 341.5,422.7344 Q342.2188,423.6406 342.2188,425.0156 Q342.2188,426.8906 341.1094,427.8125 Q340,428.7344 337.75,428.7344 Q336.8281,428.7344 335.9063,428.5156 Q334.9844,428.2969 334.125,427.875 L334.125,425.3438 Q335.0938,426.0313 336.0156,426.375 Q336.9375,426.7188 337.8281,426.7188 Q338.7344,426.7188 339.2344,426.3125 Q339.7344,425.8906 339.7344,425.1563 Q339.7344,424.5938 339.3906,424.1875 Q339.0625,423.7656 338.4375,423.5156 L337.2344,423.0625 Z " fill="#000000"/><text fill="#000000" font-family="sans-serif" font-size="14" lengthAdjust="spacing" textLength="112" x="358.25" y="427.3467">concreteFactory</text><line style="stroke:#181818;stroke-width:0.5;" x1="276" x2="520" y1="438.5" y2="438.5"/><rect fill="none" height="6" style="stroke:#C82930;stroke-width:1.0;" width="6" x="283" y="449.1484"/><text fill="#000000" font-family="sans-serif" font-size="14" lengthAdjust="spacing" textLength="101" x="295" y="455.4951">attribute string</text><line style="stroke:#181818;stroke-width:0.5;" x1="276" x2="520" y1="462.7969" y2="462.7969"/><rect fill="#F24D5C" height="6" style="stroke:#C82930;stroke-width:1.0;" width="6" x="283" y="473.4453"/><text fill="#000000" font-family="sans-serif" font-size="14" lengthAdjust="spacing" textLength="220" x="295" y="479.792">makeProduct() iAbstractProduct</text></g><!--MD5=[9801d5ca025bb98188b0acfd91cf4eef]
class abstract-factory.concreteProduct--><g id="elem_abstract-factory.concreteProduct"><rect codeLine="13" fill="#F1F1F1" height="153.7813" id="abstract-factory.concreteProduct" rx="2.5" ry="2.5" style="stroke:#181818;stroke-width:0.5;" width="218" x="22" y="370"/><ellipse cx="68.75" cy="386" fill="#7FFFD4" rx="11" ry="11" style="stroke:#181818;stroke-width:1.0;"/><path d="M68.2344,386.5625 Q66.375,385.8594 65.7188,385.0938 Q65.0781,384.3125 65.0781,383 Q65.0781,381.3125 66.1563,380.3438 Q67.2344,379.375 69.1094,379.375 Q69.9688,379.375 70.8125,379.5781 Q71.6719,379.7656 72.5156,380.1563 L72.5156,382.5469 Q71.7344,381.9844 70.9063,381.7031 Q70.0938,381.4063 69.2969,381.4063 Q68.4219,381.4063 67.9375,381.7656 Q67.4688,382.125 67.4688,382.7813 Q67.4688,383.2969 67.8125,383.6406 Q68.1563,383.9688 69.25,384.375 L70.3125,384.7813 Q71.7969,385.3281 72.5,386.2344 Q73.2188,387.1406 73.2188,388.5156 Q73.2188,390.3906 72.1094,391.3125 Q71,392.2344 68.75,392.2344 Q67.8281,392.2344 66.9063,392.0156 Q65.9844,391.7969 65.125,391.375 L65.125,388.8438 Q66.0938,389.5313 67.0156,389.875 Q67.9375,390.2188 68.8281,390.2188 Q69.7344,390.2188 70.2344,389.8125 Q70.7344,389.3906 70.7344,388.6563 Q70.7344,388.0938 70.3906,387.6875 Q70.0625,387.2656 69.4375,387.0156 L68.2344,386.5625 Z " fill="#000000"/><text fill="#000000" font-family="sans-serif" font-size="14" lengthAdjust="spacing" textLength="116" x="89.25" y="390.8467">concreteProduct</text><line style="stroke:#181818;stroke-width:0.5;" x1="23" x2="239" y1="402" y2="402"/><rect fill="none" height="6" style="stroke:#C82930;stroke-width:1.0;" width="6" x="30" y="412.6484"/><text fill="#000000" font-family="sans-serif" font-size="14" lengthAdjust="spacing" textLength="101" x="42" y="418.9951">attribute string</text><rect fill="none" height="6" style="stroke:#C82930;stroke-width:1.0;" width="6" x="30" y="428.9453"/><text fill="#000000" font-family="sans-serif" font-size="14" lengthAdjust="spacing" textLength="49" x="42" y="435.292">size int</text><line style="stroke:#181818;stroke-width:1.0;" x1="23" x2="239" y1="442.5938" y2="442.5938"/><rect fill="#F24D5C" height="6" style="stroke:#C82930;stroke-width:1.0;" width="6" x="30" y="453.2422"/><text fill="#000000" font-family="sans-serif" font-size="14" lengthAdjust="spacing" textLength="192" x="42" y="459.5889">setAttribute(attribute string)</text><rect fill="#F24D5C" height="6" style="stroke:#C82930;stroke-width:1.0;" width="6" x="30" y="469.5391"/><text fill="#000000" font-family="sans-serif" font-size="14" lengthAdjust="spacing" textLength="135" x="42" y="475.8857">getAttribute() string</text><line style="stroke:#181818;stroke-width:1.0;stroke-dasharray:1.0,2.0;" x1="23" x2="239" y1="483.1875" y2="483.1875"/><rect fill="#F24D5C" height="6" style="stroke:#C82930;stroke-width:1.0;" width="6" x="30" y="493.8359"/><text fill="#000000" font-family="sans-serif" font-size="14" lengthAdjust="spacing" textLength="110" x="42" y="500.1826">setSize(size int)</text><rect fill="#F24D5C" height="6" style="stroke:#C82930;stroke-width:1.0;" width="6" x="30" y="510.1328"/><text fill="#000000" font-family="sans-serif" font-size="14" lengthAdjust="spacing" textLength="83" x="42" y="516.4795">getSize() int</text></g><!--MD5=[78b9e3573ef076e0d1b31c53c8b861ba]
class abstract-factory.iAbstractFactory--><g id="elem_abstract-factory.iAbstractFactory"><rect codeLine="23" fill="#F1F1F1" height="64.2969" id="abstract-factory.iAbstractFactory" rx="2.5" ry="2.5" style="stroke:#181818;stroke-width:0.5;" width="246" x="275" y="221.5"/><ellipse cx="338.75" cy="237.5" fill="#B4A7E5" rx="11" ry="11" style="stroke:#181818;stroke-width:1.0;"/><path d="M334.6719,233.2656 L334.6719,231.1094 L342.0625,231.1094 L342.0625,233.2656 L339.5938,233.2656 L339.5938,241.3438 L342.0625,241.3438 L342.0625,243.5 L334.6719,243.5 L334.6719,241.3438 L337.1406,241.3438 L337.1406,233.2656 L334.6719,233.2656 Z " fill="#000000"/><text fill="#000000" font-family="sans-serif" font-size="14" font-style="italic" lengthAdjust="spacing" textLength="110" x="359.25" y="242.3467">iAbstractFactory</text><line style="stroke:#181818;stroke-width:0.5;" x1="276" x2="520" y1="253.5" y2="253.5"/><line style="stroke:#181818;stroke-width:0.5;" x1="276" x2="520" y1="261.5" y2="261.5"/><rect fill="#F24D5C" height="6" style="stroke:#C82930;stroke-width:1.0;" width="6" x="283" y="272.1484"/><text fill="#000000" font-family="sans-serif" font-size="14" lengthAdjust="spacing" textLength="220" x="295" y="278.4951">makeProduct() iAbstractProduct</text></g><!--MD5=[e93776c1f719cbff8148f72ed62fb523]
class abstract-factory.iAbstractProduct--><g id="elem_abstract-factory.iAbstractProduct"><rect codeLine="27" fill="#F1F1F1" height="113.1875" id="abstract-factory.iAbstractProduct" rx="2.5" ry="2.5" style="stroke:#181818;stroke-width:0.5;" width="218" x="22" y="197"/><ellipse cx="69.75" cy="213" fill="#B4A7E5" rx="11" ry="11" style="stroke:#181818;stroke-width:1.0;"/><path d="M65.6719,208.7656 L65.6719,206.6094 L73.0625,206.6094 L73.0625,208.7656 L70.5938,208.7656 L70.5938,216.8438 L73.0625,216.8438 L73.0625,219 L65.6719,219 L65.6719,216.8438 L68.1406,216.8438 L68.1406,208.7656 L65.6719,208.7656 Z " fill="#000000"/><text fill="#000000" font-family="sans-serif" font-size="14" font-style="italic" lengthAdjust="spacing" textLength="114" x="90.25" y="217.8467">iAbstractProduct</text><line style="stroke:#181818;stroke-width:0.5;" x1="23" x2="239" y1="229" y2="229"/><rect fill="#F24D5C" height="6" style="stroke:#C82930;stroke-width:1.0;" width="6" x="30" y="239.6484"/><text fill="#000000" font-family="sans-serif" font-size="14" lengthAdjust="spacing" textLength="192" x="42" y="245.9951">setAttribute(attribute string)</text><rect fill="#F24D5C" height="6" style="stroke:#C82930;stroke-width:1.0;" width="6" x="30" y="255.9453"/><text fill="#000000" font-family="sans-serif" font-size="14" lengthAdjust="spacing" textLength="135" x="42" y="262.292">getAttribute() string</text><line style="stroke:#181818;stroke-width:1.0;stroke-dasharray:1.0,2.0;" x1="23" x2="239" y1="269.5938" y2="269.5938"/><rect fill="#F24D5C" height="6" style="stroke:#C82930;stroke-width:1.0;" width="6" x="30" y="280.2422"/><text fill="#000000" font-family="sans-serif" font-size="14" lengthAdjust="spacing" textLength="110" x="42" y="286.5889">setSize(size int)</text><rect fill="#F24D5C" height="6" style="stroke:#C82930;stroke-width:1.0;" width="6" x="30" y="296.5391"/><text fill="#000000" font-family="sans-serif" font-size="14" lengthAdjust="spacing" textLength="83" x="42" y="302.8857">getSize() int</text></g><!--MD5=[ed6624c6556d5e7b1bd23032162d20b7]
class Client--><g id="elem_Client"><rect codeLine="2" fill="#F1F1F1" height="26.2969" id="Client" rx="2.5" ry="2.5" style="stroke:#4169E1;stroke-width:2.0;" width="45" x="241.5" y="58.5"/><text fill="#000000" font-family="sans-serif" font-size="14" lengthAdjust="spacing" textLength="39" x="244.5" y="76.4951">Client</text></g><g id="elem_N1"><path d="M322,6 L322,137.0625 L554,137.0625 L554,16 L544,6 L322,6 " fill="#FEFFDD" style="stroke:#181818;stroke-width:0.5;"/><path d="M544,6 L544,16 L554,16 L544,6 " fill="#FEFFDD" style="stroke:#181818;stroke-width:1.0;"/><text fill="#4169E1" font-family="sans-serif" font-size="13" font-weight="bold" lengthAdjust="spacing" textLength="123" x="328" y="23.0669">Abstract Factory</text><text fill="#000000" font-family="sans-serif" font-size="13" lengthAdjust="spacing" textLength="4" x="328" y="38.1997"> </text><text fill="#000000" font-family="sans-serif" font-size="13" font-weight="bold" lengthAdjust="spacing" textLength="40" x="328" y="53.3325">Type:</text><text fill="#000000" font-family="sans-serif" font-size="13" lengthAdjust="spacing" textLength="65" x="372" y="53.3325">Creational</text><text fill="#000000" font-family="sans-serif" font-size="13" lengthAdjust="spacing" textLength="4" x="328" y="68.4653"> </text><text fill="#000000" font-family="sans-serif" font-size="13" lengthAdjust="spacing" textLength="211" x="328" y="83.5981">Provides an interface for creating</text><text fill="#000000" font-family="sans-serif" font-size="13" lengthAdjust="spacing" textLength="204" x="328" y="98.731">families of related or dependent</text><text fill="#000000" font-family="sans-serif" font-size="13" lengthAdjust="spacing" textLength="196" x="328" y="113.8638">objects without specifying their</text><text fill="#000000" font-family="sans-serif" font-size="13" lengthAdjust="spacing" textLength="96" x="328" y="128.9966">concrete class.</text></g><!--MD5=[57336f676b846e5a2ac681d512282cb3]
link Client to abstract-factory.iAbstractFactory--><g id="link_Client_abstract-factory.iAbstractFactory"><path codeLine="36" d="M271.17,84.65 C279.06,97.82 292.32,119.32 305,137 C324.91,164.77 349.18,194.8 367.93,217.27 " fill="none" id="Client-to-abstract-factory.iAbstractFactory" style="stroke:#4169E1;stroke-width:2.0;stroke-dasharray:1.0,3.0;"/><polygon fill="#4169E1" points="371.37,221.38,368.6847,211.9043,368.1705,217.5377,362.537,217.0235,371.37,221.38" style="stroke:#4169E1;stroke-width:2.0;"/></g><!--MD5=[cb48f161b3e82d8ba56d1ef1b645cc7f]
link Client to abstract-factory.iAbstractProduct--><g id="link_Client_abstract-factory.iAbstractProduct"><path codeLine="37" d="M255.07,84.59 C238.94,106.42 203.97,153.75 175.25,192.61 " fill="none" id="Client-to-abstract-factory.iAbstractProduct" style="stroke:#4169E1;stroke-width:2.0;stroke-dasharray:1.0,3.0;"/><polygon fill="#4169E1" points="172.14,196.83,180.7014,191.9614,175.1079,192.8062,174.2632,187.2127,172.14,196.83" style="stroke:#4169E1;stroke-width:2.0;"/></g><!--MD5=[de3a74455e542ee0e7f9f9573c1f3a6f]
reverse link abstract-factory.iAbstractFactory to abstract-factory.concreteFactory--><g id="link_abstract-factory.iAbstractFactory_abstract-factory.concreteFactory"><path codeLine="39" d="M398,305.95 C398,337.42 398,377.1 398,406.17 " fill="none" id="abstract-factory.iAbstractFactory-backto-abstract-factory.concreteFactory" style="stroke:#181818;stroke-width:1.0;"/><polygon fill="none" points="391,305.69,398,285.69,405,305.69,391,305.69" style="stroke:#181818;stroke-width:1.0;"/></g><!--MD5=[12bbca0f74e6106a6959644adf77d58e]
reverse link abstract-factory.iAbstractProduct to abstract-factory.concreteProduct--><g id="link_abstract-factory.iAbstractProduct_abstract-factory.concreteProduct"><path codeLine="40" d="M131,330.59 C131,343.53 131,356.97 131,369.91 " fill="none" id="abstract-factory.iAbstractProduct-backto-abstract-factory.concreteProduct" style="stroke:#181818;stroke-width:1.0;"/><polygon fill="none" points="124,330.15,131,310.15,138,330.15,124,330.15" style="stroke:#181818;stroke-width:1.0;"/></g><!--MD5=[2ab9f88010e21811eac1cad86b608616]
@startuml abstract-factory

class Client #line.bold:royalBlue
hide Client members
hide Client circle

namespace abstract-factory {
    class concreteFactory << (S,Aquamarine) >> {
        - attribute string

        - makeProduct() iAbstractProduct

    }
    class concreteProduct << (S,Aquamarine) >> {
        - attribute string
        - size int
        - -
        - setAttribute(attribute string) 
        - getAttribute() string
        ..
        - setSize(size int) 
        - getSize() int
    }
    interface iAbstractFactory  {
        - makeProduct() iAbstractProduct

    }
    interface iAbstractProduct  {
        - setAttribute(attribute string) 
        - getAttribute() string
        ..
        - setSize(size int) 
        - getSize() int
    }
}

"Client" -[dotted,thickness=2,#royalBlue]-> "abstract-factory.iAbstractFactory"
"Client" -[dotted,thickness=2,#royalBlue]-> "abstract-factory.iAbstractProduct"

"abstract-factory.iAbstractFactory" <|- - "abstract-factory.concreteFactory"
"abstract-factory.iAbstractProduct" <|- - "abstract-factory.concreteProduct"

note as N1
    <b><color:royalBlue>Abstract Factory</color></b>

    <b>Type:</b> Creational

    Provides an interface for creating
    families of related or dependent
    objects without specifying their
    concrete class.
end note

@enduml

PlantUML version 1.2022.13(Sat Nov 19 13:22:17 UTC 2022)
(GPL source distribution)
Java Runtime: OpenJDK Runtime Environment
JVM: OpenJDK 64-Bit Server VM
Default Encoding: UTF-8
Language: en
Country: null
--></g></svg>