<?xml version="1.0" encoding="UTF-8" standalone="no"?><svg xmlns="http://www.w3.org/2000/svg" xmlns:xlink="http://www.w3.org/1999/xlink" contentStyleType="text/css" height="579px" preserveAspectRatio="none" style="width:742px;height:579px;background:#FFFFFF;" version="1.1" viewBox="0 0 742 579" width="742px" zoomAndPan="magnify"><defs/><g><!--MD5=[359537f366b8bb5eb5abd913e65f0a43]
cluster abstract-factory--><g id="cluster_abstract-factory"><path d="M8.5,162 L136.5,162 A3.75,3.75 0 0 1 139,164.5 L146,184.2969 L554.5,184.2969 A2.5,2.5 0 0 1 557,186.7969 L557,569.5 A2.5,2.5 0 0 1 554.5,572 L8.5,572 A2.5,2.5 0 0 1 6,569.5 L6,164.5 A2.5,2.5 0 0 1 8.5,162 " fill="none" style="stroke:#000000;stroke-width:1.5;"/><line style="stroke:#000000;stroke-width:1.5;" x1="6" x2="146" y1="184.2969" y2="184.2969"/><text fill="#000000" font-family="sans-serif" font-size="14" font-weight="bold" lengthAdjust="spacing" textLength="127" x="10" y="176.9951">abstract-factory</text></g><!--MD5=[e93776c1f719cbff8148f72ed62fb523]
class abstract-factory.iAbstractProduct--><g id="elem_abstract-factory.iAbstractProduct"><rect codeLine="7" fill="#F1F1F1" height="129.4844" id="abstract-factory.iAbstractProduct" rx="2.5" ry="2.5" style="stroke:#181818;stroke-width:0.5;" width="238" x="22" y="197"/><ellipse cx="79.75" cy="213" fill="#B4A7E5" rx="11" ry="11" style="stroke:#181818;stroke-width:1.0;"/><path d="M75.6719,208.7656 L75.6719,206.6094 L83.0625,206.6094 L83.0625,208.7656 L80.5938,208.7656 L80.5938,216.8438 L83.0625,216.8438 L83.0625,219 L75.6719,219 L75.6719,216.8438 L78.1406,216.8438 L78.1406,208.7656 L75.6719,208.7656 Z " fill="#000000"/><text fill="#000000" font-family="sans-serif" font-size="14" font-style="italic" lengthAdjust="spacing" textLength="114" x="100.25" y="217.8467">iAbstractProduct</text><line style="stroke:#181818;stroke-width:0.5;" x1="23" x2="259" y1="229" y2="229"/><rect fill="#F24D5C" height="6" style="stroke:#C82930;stroke-width:1.0;" width="6" x="30" y="239.6484"/><text fill="#000000" font-family="sans-serif" font-size="14" lengthAdjust="spacing" textLength="212" x="42" y="245.9951">setBehaviour(behaviour string)</text><rect fill="#F24D5C" height="6" style="stroke:#C82930;stroke-width:1.0;" width="6" x="30" y="255.9453"/><text fill="#000000" font-family="sans-serif" font-size="14" lengthAdjust="spacing" textLength="145" x="42" y="262.292">getBehaviour() string</text><line style="stroke:#181818;stroke-width:1.0;stroke-dasharray:1.0,2.0;" x1="23" x2="259" y1="269.5938" y2="269.5938"/><rect fill="#F24D5C" height="6" style="stroke:#C82930;stroke-width:1.0;" width="6" x="30" y="280.2422"/><text fill="#000000" font-family="sans-serif" font-size="14" lengthAdjust="spacing" textLength="155" x="42" y="286.5889">setFeature(feature int)</text><rect fill="#F24D5C" height="6" style="stroke:#C82930;stroke-width:1.0;" width="6" x="30" y="296.5391"/><text fill="#000000" font-family="sans-serif" font-size="14" lengthAdjust="spacing" textLength="107" x="42" y="302.8857">getFeature() int</text><text fill="#000000" font-family="sans-serif" font-size="14" lengthAdjust="spacing" textLength="4" x="42" y="319.1826"> </text></g><!--MD5=[78b9e3573ef076e0d1b31c53c8b861ba]
class abstract-factory.iAbstractFactory--><g id="elem_abstract-factory.iAbstractFactory"><rect codeLine="15" fill="#F1F1F1" height="64.2969" id="abstract-factory.iAbstractFactory" rx="2.5" ry="2.5" style="stroke:#181818;stroke-width:0.5;" width="246" x="295" y="229.5"/><ellipse cx="358.75" cy="245.5" fill="#B4A7E5" rx="11" ry="11" style="stroke:#181818;stroke-width:1.0;"/><path d="M354.6719,241.2656 L354.6719,239.1094 L362.0625,239.1094 L362.0625,241.2656 L359.5938,241.2656 L359.5938,249.3438 L362.0625,249.3438 L362.0625,251.5 L354.6719,251.5 L354.6719,249.3438 L357.1406,249.3438 L357.1406,241.2656 L354.6719,241.2656 Z " fill="#000000"/><text fill="#000000" font-family="sans-serif" font-size="14" font-style="italic" lengthAdjust="spacing" textLength="110" x="379.25" y="250.3467">iAbstractFactory</text><line style="stroke:#181818;stroke-width:0.5;" x1="296" x2="540" y1="261.5" y2="261.5"/><line style="stroke:#181818;stroke-width:0.5;" x1="296" x2="540" y1="269.5" y2="269.5"/><rect fill="#F24D5C" height="6" style="stroke:#C82930;stroke-width:1.0;" width="6" x="303" y="280.1484"/><text fill="#000000" font-family="sans-serif" font-size="14" lengthAdjust="spacing" textLength="220" x="315" y="286.4951">makeProduct() iAbstractProduct</text></g><!--MD5=[9801d5ca025bb98188b0acfd91cf4eef]
class abstract-factory.concreteProduct--><g id="elem_abstract-factory.concreteProduct"><rect codeLine="19" fill="#F1F1F1" height="170.0781" id="abstract-factory.concreteProduct" rx="2.5" ry="2.5" style="stroke:#181818;stroke-width:0.5;" width="238" x="22" y="386"/><ellipse cx="78.75" cy="402" fill="#7FFFD4" rx="11" ry="11" style="stroke:#181818;stroke-width:1.0;"/><path d="M78.2344,402.5625 Q76.375,401.8594 75.7188,401.0938 Q75.0781,400.3125 75.0781,399 Q75.0781,397.3125 76.1563,396.3438 Q77.2344,395.375 79.1094,395.375 Q79.9688,395.375 80.8125,395.5781 Q81.6719,395.7656 82.5156,396.1563 L82.5156,398.5469 Q81.7344,397.9844 80.9063,397.7031 Q80.0938,397.4063 79.2969,397.4063 Q78.4219,397.4063 77.9375,397.7656 Q77.4688,398.125 77.4688,398.7813 Q77.4688,399.2969 77.8125,399.6406 Q78.1563,399.9688 79.25,400.375 L80.3125,400.7813 Q81.7969,401.3281 82.5,402.2344 Q83.2188,403.1406 83.2188,404.5156 Q83.2188,406.3906 82.1094,407.3125 Q81,408.2344 78.75,408.2344 Q77.8281,408.2344 76.9063,408.0156 Q75.9844,407.7969 75.125,407.375 L75.125,404.8438 Q76.0938,405.5313 77.0156,405.875 Q77.9375,406.2188 78.8281,406.2188 Q79.7344,406.2188 80.2344,405.8125 Q80.7344,405.3906 80.7344,404.6563 Q80.7344,404.0938 80.3906,403.6875 Q80.0625,403.2656 79.4375,403.0156 L78.2344,402.5625 Z " fill="#000000"/><text fill="#000000" font-family="sans-serif" font-size="14" lengthAdjust="spacing" textLength="116" x="99.25" y="406.8467">concreteProduct</text><line style="stroke:#181818;stroke-width:0.5;" x1="23" x2="259" y1="418" y2="418"/><rect fill="none" height="6" style="stroke:#C82930;stroke-width:1.0;" width="6" x="30" y="428.6484"/><text fill="#000000" font-family="sans-serif" font-size="14" lengthAdjust="spacing" textLength="111" x="42" y="434.9951">behaviour string</text><rect fill="none" height="6" style="stroke:#C82930;stroke-width:1.0;" width="6" x="30" y="444.9453"/><text fill="#000000" font-family="sans-serif" font-size="14" lengthAdjust="spacing" textLength="70" x="42" y="451.292">feature int</text><line style="stroke:#181818;stroke-width:1.0;" x1="23" x2="259" y1="458.5938" y2="458.5938"/><rect fill="#F24D5C" height="6" style="stroke:#C82930;stroke-width:1.0;" width="6" x="30" y="469.2422"/><text fill="#000000" font-family="sans-serif" font-size="14" lengthAdjust="spacing" textLength="212" x="42" y="475.5889">setBehaviour(behaviour string)</text><rect fill="#F24D5C" height="6" style="stroke:#C82930;stroke-width:1.0;" width="6" x="30" y="485.5391"/><text fill="#000000" font-family="sans-serif" font-size="14" lengthAdjust="spacing" textLength="145" x="42" y="491.8857">getBehaviour() string</text><line style="stroke:#181818;stroke-width:1.0;stroke-dasharray:1.0,2.0;" x1="23" x2="259" y1="499.1875" y2="499.1875"/><rect fill="#F24D5C" height="6" style="stroke:#C82930;stroke-width:1.0;" width="6" x="30" y="509.8359"/><text fill="#000000" font-family="sans-serif" font-size="14" lengthAdjust="spacing" textLength="155" x="42" y="516.1826">setFeature(feature int)</text><rect fill="#F24D5C" height="6" style="stroke:#C82930;stroke-width:1.0;" width="6" x="30" y="526.1328"/><text fill="#000000" font-family="sans-serif" font-size="14" lengthAdjust="spacing" textLength="107" x="42" y="532.4795">getFeature() int</text><text fill="#000000" font-family="sans-serif" font-size="14" lengthAdjust="spacing" textLength="4" x="42" y="548.7764"> </text></g><!--MD5=[450f67c793b5fc856f9ea5f48e240f3b]
class abstract-factory.concreteFactory--><g id="elem_abstract-factory.concreteFactory"><rect codeLine="30" fill="#F1F1F1" height="80.5938" id="abstract-factory.concreteFactory" rx="2.5" ry="2.5" style="stroke:#181818;stroke-width:0.5;" width="246" x="295" y="430.5"/><ellipse cx="357.75" cy="446.5" fill="#7FFFD4" rx="11" ry="11" style="stroke:#181818;stroke-width:1.0;"/><path d="M357.2344,447.0625 Q355.375,446.3594 354.7188,445.5938 Q354.0781,444.8125 354.0781,443.5 Q354.0781,441.8125 355.1563,440.8438 Q356.2344,439.875 358.1094,439.875 Q358.9688,439.875 359.8125,440.0781 Q360.6719,440.2656 361.5156,440.6563 L361.5156,443.0469 Q360.7344,442.4844 359.9063,442.2031 Q359.0938,441.9063 358.2969,441.9063 Q357.4219,441.9063 356.9375,442.2656 Q356.4688,442.625 356.4688,443.2813 Q356.4688,443.7969 356.8125,444.1406 Q357.1563,444.4688 358.25,444.875 L359.3125,445.2813 Q360.7969,445.8281 361.5,446.7344 Q362.2188,447.6406 362.2188,449.0156 Q362.2188,450.8906 361.1094,451.8125 Q360,452.7344 357.75,452.7344 Q356.8281,452.7344 355.9063,452.5156 Q354.9844,452.2969 354.125,451.875 L354.125,449.3438 Q355.0938,450.0313 356.0156,450.375 Q356.9375,450.7188 357.8281,450.7188 Q358.7344,450.7188 359.2344,450.3125 Q359.7344,449.8906 359.7344,449.1563 Q359.7344,448.5938 359.3906,448.1875 Q359.0625,447.7656 358.4375,447.5156 L357.2344,447.0625 Z " fill="#000000"/><text fill="#000000" font-family="sans-serif" font-size="14" lengthAdjust="spacing" textLength="112" x="378.25" y="451.3467">concreteFactory</text><line style="stroke:#181818;stroke-width:0.5;" x1="296" x2="540" y1="462.5" y2="462.5"/><rect fill="none" height="6" style="stroke:#C82930;stroke-width:1.0;" width="6" x="303" y="473.1484"/><text fill="#000000" font-family="sans-serif" font-size="14" lengthAdjust="spacing" textLength="150" x="315" y="479.4951">specialAttribute string</text><line style="stroke:#181818;stroke-width:0.5;" x1="296" x2="540" y1="486.7969" y2="486.7969"/><rect fill="#F24D5C" height="6" style="stroke:#C82930;stroke-width:1.0;" width="6" x="303" y="497.4453"/><text fill="#000000" font-family="sans-serif" font-size="14" lengthAdjust="spacing" textLength="220" x="315" y="503.792">makeProduct() iAbstractProduct</text></g><!--MD5=[ed6624c6556d5e7b1bd23032162d20b7]
class Client--><g id="elem_Client"><rect codeLine="2" fill="#F1F1F1" height="26.2969" id="Client" rx="2.5" ry="2.5" style="stroke:#4169E1;stroke-width:2.0;" width="45" x="256.5" y="58.5"/><text fill="#000000" font-family="sans-serif" font-size="14" lengthAdjust="spacing" textLength="39" x="259.5" y="76.4951">Client</text></g><g id="elem_N1"><path d="M337,6 L337,137.0625 L569,137.0625 L569,16 L559,6 L337,6 " fill="#FEFFDD" style="stroke:#181818;stroke-width:0.5;"/><path d="M559,6 L559,16 L569,16 L559,6 " fill="#FEFFDD" style="stroke:#181818;stroke-width:1.0;"/><text fill="#4169E1" font-family="sans-serif" font-size="13" font-weight="bold" lengthAdjust="spacing" textLength="123" x="343" y="23.0669">Abstract Factory</text><text fill="#000000" font-family="sans-serif" font-size="13" lengthAdjust="spacing" textLength="4" x="343" y="38.1997"> </text><text fill="#000000" font-family="sans-serif" font-size="13" font-weight="bold" lengthAdjust="spacing" textLength="40" x="343" y="53.3325">Type:</text><text fill="#000000" font-family="sans-serif" font-size="13" lengthAdjust="spacing" textLength="65" x="387" y="53.3325">Creational</text><text fill="#000000" font-family="sans-serif" font-size="13" lengthAdjust="spacing" textLength="4" x="343" y="68.4653"> </text><text fill="#000000" font-family="sans-serif" font-size="13" lengthAdjust="spacing" textLength="211" x="343" y="83.5981">Provides an interface for creating</text><text fill="#000000" font-family="sans-serif" font-size="13" lengthAdjust="spacing" textLength="204" x="343" y="98.731">families of related or dependent</text><text fill="#000000" font-family="sans-serif" font-size="13" lengthAdjust="spacing" textLength="196" x="343" y="113.8638">objects without specifying their</text><text fill="#000000" font-family="sans-serif" font-size="13" lengthAdjust="spacing" textLength="96" x="343" y="128.9966">concrete class.</text></g><path d="M576.5,221 L576.5,252.2656 L535,281.6484 L576.5,260.2656 L576.5,291.5313 A0,0 0 0 0 576.5,291.5313 L735.5,291.5313 A0,0 0 0 0 735.5,291.5313 L735.5,231 L725.5,221 L576.5,221 A0,0 0 0 0 576.5,221 " fill="#FEFFDD" style="stroke:#181818;stroke-width:0.5;"/><path d="M725.5,221 L725.5,231 L735.5,231 L725.5,221 " fill="#FEFFDD" style="stroke:#181818;stroke-width:0.5;"/><text fill="#000000" font-family="sans-serif" font-size="13" lengthAdjust="spacing" textLength="122" x="582.5" y="238.0669">An abstract factory</text><text fill="#000000" font-family="sans-serif" font-size="13" lengthAdjust="spacing" textLength="123" x="582.5" y="253.1997">returns an abstract</text><text fill="#000000" font-family="sans-serif" font-size="13" lengthAdjust="spacing" textLength="134" x="582.5" y="268.3325">pointer to a concrete</text><text fill="#000000" font-family="sans-serif" font-size="13" lengthAdjust="spacing" textLength="43" x="582.5" y="283.4653">object.</text><!--MD5=[57336f676b846e5a2ac681d512282cb3]
link Client to abstract-factory.iAbstractFactory--><g id="link_Client_abstract-factory.iAbstractFactory"><path codeLine="37" d="M286.19,84.63 C294.1,97.79 307.38,119.27 320,137 C341.83,167.67 368.49,201.04 388.49,225.35 " fill="none" id="Client-to-abstract-factory.iAbstractFactory" style="stroke:#4169E1;stroke-width:2.0;stroke-dasharray:1.0,3.0;"/><polygon fill="#4169E1" points="391.89,229.47,389.2428,219.9836,388.706,225.6149,383.0746,225.078,391.89,229.47" style="stroke:#4169E1;stroke-width:2.0;"/></g><!--MD5=[cb48f161b3e82d8ba56d1ef1b645cc7f]
link Client to abstract-factory.iAbstractProduct--><g id="link_Client_abstract-factory.iAbstractProduct"><path codeLine="38" d="M270.16,84.55 C254.37,106.05 220.26,152.52 191.06,192.3 " fill="none" id="Client-to-abstract-factory.iAbstractProduct" style="stroke:#4169E1;stroke-width:2.0;stroke-dasharray:1.0,3.0;"/><polygon fill="#4169E1" points="187.89,196.63,196.4319,191.7273,190.8419,192.5944,189.9748,187.0043,187.89,196.63" style="stroke:#4169E1;stroke-width:2.0;"/></g><!--MD5=[de3a74455e542ee0e7f9f9573c1f3a6f]
reverse link abstract-factory.iAbstractFactory to abstract-factory.concreteFactory--><g id="link_abstract-factory.iAbstractFactory_abstract-factory.concreteFactory"><path codeLine="40" d="M418,313.73 C418,349.68 418,397.06 418,430.18 " fill="none" id="abstract-factory.iAbstractFactory-backto-abstract-factory.concreteFactory" style="stroke:#181818;stroke-width:1.0;"/><polygon fill="none" points="411,313.56,418,293.56,425,313.56,411,313.56" style="stroke:#181818;stroke-width:1.0;"/></g><!--MD5=[12bbca0f74e6106a6959644adf77d58e]
reverse link abstract-factory.iAbstractProduct to abstract-factory.concreteProduct--><g id="link_abstract-factory.iAbstractProduct_abstract-factory.concreteProduct"><path codeLine="41" d="M141,346.19 C141,359.24 141,372.74 141,385.8 " fill="none" id="abstract-factory.iAbstractProduct-backto-abstract-factory.concreteProduct" style="stroke:#181818;stroke-width:1.0;"/><polygon fill="none" points="134,346.17,141,326.17,148,346.17,134,346.17" style="stroke:#181818;stroke-width:1.0;"/></g><!--MD5=[18f331095e5a075906a3d84b4707fee2]
@startuml abstract-factory

class Client #line.bold:royalBlue
hide Client members
hide Client circle

namespace abstract-factory {
    interface iAbstractProduct  {
        - setBehaviour(behaviour string) 
        - getBehaviour() string
        ..
        - setFeature(feature int) 
        - getFeature() int

    }
    interface iAbstractFactory  {
        - makeProduct() iAbstractProduct

    }
    class concreteProduct << (S,Aquamarine) >> {
        - behaviour string
        - feature int
        - -
        - setBehaviour(behaviour string) 
        - getBehaviour() string
        ..
        - setFeature(feature int) 
        - getFeature() int

    }
    class concreteFactory << (S,Aquamarine) >> {
        - specialAttribute string

        - makeProduct() iAbstractProduct
    }
}

"Client" -[dotted,thickness=2,#royalBlue]-> "abstract-factory.iAbstractFactory"
"Client" -[dotted,thickness=2,#royalBlue]-> "abstract-factory.iAbstractProduct"

"abstract-factory.iAbstractFactory" <|- - "abstract-factory.concreteFactory"
"abstract-factory.iAbstractProduct" <|- - "abstract-factory.concreteProduct"

note as N1
    <b><color:royalBlue>Abstract Factory</color></b>

    <b>Type:</b> Creational

    Provides an interface for creating
    families of related or dependent
    objects without specifying their
    concrete class.
end note

note right of abstract-factory.iAbstractFactory::iAbstractProduct
    An abstract factory
    returns an abstract
    pointer to a concrete 
    object.
end note

@enduml

PlantUML version 1.2022.13(Sat Nov 19 13:22:17 UTC 2022)
(GPL source distribution)
Java Runtime: OpenJDK Runtime Environment
JVM: OpenJDK 64-Bit Server VM
Default Encoding: UTF-8
Language: en
Country: null
--></g></svg>