<?xml version="1.0" encoding="UTF-8" standalone="no"?><svg xmlns="http://www.w3.org/2000/svg" xmlns:xlink="http://www.w3.org/1999/xlink" contentStyleType="text/css" height="789px" preserveAspectRatio="none" style="width:612px;height:789px;background:#FFFFFF;" version="1.1" viewBox="0 0 612 789" width="612px" zoomAndPan="magnify"><defs/><g><!--MD5=[359537f366b8bb5eb5abd913e65f0a43]
cluster abstract-factory--><g id="cluster_abstract-factory"><path d="M8.5,6 L136.5,6 A3.75,3.75 0 0 1 139,8.5 L146,28.2969 L602.5,28.2969 A2.5,2.5 0 0 1 605,30.7969 L605,779.5 A2.5,2.5 0 0 1 602.5,782 L8.5,782 A2.5,2.5 0 0 1 6,779.5 L6,8.5 A2.5,2.5 0 0 1 8.5,6 " fill="none" style="stroke:#000000;stroke-width:1.5;"/><line style="stroke:#000000;stroke-width:1.5;" x1="6" x2="146" y1="28.2969" y2="28.2969"/><text fill="#000000" font-family="sans-serif" font-size="14" font-weight="bold" lengthAdjust="spacing" textLength="127" x="10" y="20.9951">abstract-factory</text></g><!--MD5=[4ec91990d98f638bb915159918a1db32]
class abstract-factory.concreteFactory1--><g id="elem_abstract-factory.concreteFactory1"><rect codeLine="3" fill="#F1F1F1" height="80.5938" id="abstract-factory.concreteFactory1" rx="2.5" ry="2.5" style="stroke:#181818;stroke-width:0.5;" width="266" x="22" y="306"/><ellipse cx="90.25" cy="322" fill="#7FFFD4" rx="11" ry="11" style="stroke:#181818;stroke-width:1.0;"/><path d="M89.7344,322.5625 Q87.875,321.8594 87.2188,321.0938 Q86.5781,320.3125 86.5781,319 Q86.5781,317.3125 87.6563,316.3438 Q88.7344,315.375 90.6094,315.375 Q91.4688,315.375 92.3125,315.5781 Q93.1719,315.7656 94.0156,316.1563 L94.0156,318.5469 Q93.2344,317.9844 92.4063,317.7031 Q91.5938,317.4063 90.7969,317.4063 Q89.9219,317.4063 89.4375,317.7656 Q88.9688,318.125 88.9688,318.7813 Q88.9688,319.2969 89.3125,319.6406 Q89.6563,319.9688 90.75,320.375 L91.8125,320.7813 Q93.2969,321.3281 94,322.2344 Q94.7188,323.1406 94.7188,324.5156 Q94.7188,326.3906 93.6094,327.3125 Q92.5,328.2344 90.25,328.2344 Q89.3281,328.2344 88.4063,328.0156 Q87.4844,327.7969 86.625,327.375 L86.625,324.8438 Q87.5938,325.5313 88.5156,325.875 Q89.4375,326.2188 90.3281,326.2188 Q91.2344,326.2188 91.7344,325.8125 Q92.2344,325.3906 92.2344,324.6563 Q92.2344,324.0938 91.8906,323.6875 Q91.5625,323.2656 90.9375,323.0156 L89.7344,322.5625 Z " fill="#000000"/><text fill="#000000" font-family="sans-serif" font-size="14" lengthAdjust="spacing" textLength="121" x="110.75" y="326.8467">concreteFactory1</text><line style="stroke:#181818;stroke-width:0.5;" x1="23" x2="287" y1="338" y2="338"/><line style="stroke:#181818;stroke-width:0.5;" x1="23" x2="287" y1="346" y2="346"/><ellipse cx="33" cy="359.6484" fill="#84BE84" rx="3" ry="3" style="stroke:#038048;stroke-width:1.0;"/><text fill="#000000" font-family="sans-serif" font-size="14" lengthAdjust="spacing" textLength="238" x="42" y="362.9951">makeProductA() iAbstractProductA</text><ellipse cx="33" cy="375.9453" fill="#84BE84" rx="3" ry="3" style="stroke:#038048;stroke-width:1.0;"/><text fill="#000000" font-family="sans-serif" font-size="14" lengthAdjust="spacing" textLength="240" x="42" y="379.292">makeProductB() iAbstractProductB</text></g><!--MD5=[7d87fb970fda150a1a7e8d6b55c99a1f]
class abstract-factory.concreteFactory2--><g id="elem_abstract-factory.concreteFactory2"><rect codeLine="8" fill="#F1F1F1" height="80.5938" id="abstract-factory.concreteFactory2" rx="2.5" ry="2.5" style="stroke:#181818;stroke-width:0.5;" width="266" x="323" y="306"/><ellipse cx="391.25" cy="322" fill="#7FFFD4" rx="11" ry="11" style="stroke:#181818;stroke-width:1.0;"/><path d="M390.7344,322.5625 Q388.875,321.8594 388.2188,321.0938 Q387.5781,320.3125 387.5781,319 Q387.5781,317.3125 388.6563,316.3438 Q389.7344,315.375 391.6094,315.375 Q392.4688,315.375 393.3125,315.5781 Q394.1719,315.7656 395.0156,316.1563 L395.0156,318.5469 Q394.2344,317.9844 393.4063,317.7031 Q392.5938,317.4063 391.7969,317.4063 Q390.9219,317.4063 390.4375,317.7656 Q389.9688,318.125 389.9688,318.7813 Q389.9688,319.2969 390.3125,319.6406 Q390.6563,319.9688 391.75,320.375 L392.8125,320.7813 Q394.2969,321.3281 395,322.2344 Q395.7188,323.1406 395.7188,324.5156 Q395.7188,326.3906 394.6094,327.3125 Q393.5,328.2344 391.25,328.2344 Q390.3281,328.2344 389.4063,328.0156 Q388.4844,327.7969 387.625,327.375 L387.625,324.8438 Q388.5938,325.5313 389.5156,325.875 Q390.4375,326.2188 391.3281,326.2188 Q392.2344,326.2188 392.7344,325.8125 Q393.2344,325.3906 393.2344,324.6563 Q393.2344,324.0938 392.8906,323.6875 Q392.5625,323.2656 391.9375,323.0156 L390.7344,322.5625 Z " fill="#000000"/><text fill="#000000" font-family="sans-serif" font-size="14" lengthAdjust="spacing" textLength="121" x="411.75" y="326.8467">concreteFactory2</text><line style="stroke:#181818;stroke-width:0.5;" x1="324" x2="588" y1="338" y2="338"/><line style="stroke:#181818;stroke-width:0.5;" x1="324" x2="588" y1="346" y2="346"/><ellipse cx="334" cy="359.6484" fill="#84BE84" rx="3" ry="3" style="stroke:#038048;stroke-width:1.0;"/><text fill="#000000" font-family="sans-serif" font-size="14" lengthAdjust="spacing" textLength="238" x="343" y="362.9951">makeProductA() iAbstractProductA</text><ellipse cx="334" cy="375.9453" fill="#84BE84" rx="3" ry="3" style="stroke:#038048;stroke-width:1.0;"/><text fill="#000000" font-family="sans-serif" font-size="14" lengthAdjust="spacing" textLength="240" x="343" y="379.292">makeProductB() iAbstractProductB</text></g><!--MD5=[e0bd0a71874c14fbdf0c8db17146b1d4]
class abstract-factory.concreteProductA--><g id="elem_abstract-factory.concreteProductA"><rect codeLine="13" fill="#F1F1F1" height="145.7813" id="abstract-factory.concreteProductA" rx="2.5" ry="2.5" style="stroke:#181818;stroke-width:0.5;" width="247" x="35.5" y="620"/><ellipse cx="92.25" cy="636" fill="#7FFFD4" rx="11" ry="11" style="stroke:#181818;stroke-width:1.0;"/><path d="M91.7344,636.5625 Q89.875,635.8594 89.2188,635.0938 Q88.5781,634.3125 88.5781,633 Q88.5781,631.3125 89.6563,630.3438 Q90.7344,629.375 92.6094,629.375 Q93.4688,629.375 94.3125,629.5781 Q95.1719,629.7656 96.0156,630.1563 L96.0156,632.5469 Q95.2344,631.9844 94.4063,631.7031 Q93.5938,631.4063 92.7969,631.4063 Q91.9219,631.4063 91.4375,631.7656 Q90.9688,632.125 90.9688,632.7813 Q90.9688,633.2969 91.3125,633.6406 Q91.6563,633.9688 92.75,634.375 L93.8125,634.7813 Q95.2969,635.3281 96,636.2344 Q96.7188,637.1406 96.7188,638.5156 Q96.7188,640.3906 95.6094,641.3125 Q94.5,642.2344 92.25,642.2344 Q91.3281,642.2344 90.4063,642.0156 Q89.4844,641.7969 88.625,641.375 L88.625,638.8438 Q89.5938,639.5313 90.5156,639.875 Q91.4375,640.2188 92.3281,640.2188 Q93.2344,640.2188 93.7344,639.8125 Q94.2344,639.3906 94.2344,638.6563 Q94.2344,638.0938 93.8906,637.6875 Q93.5625,637.2656 92.9375,637.0156 L91.7344,636.5625 Z " fill="#000000"/><text fill="#000000" font-family="sans-serif" font-size="14" lengthAdjust="spacing" textLength="125" x="112.75" y="640.8467">concreteProductA</text><line style="stroke:#181818;stroke-width:0.5;" x1="36.5" x2="281.5" y1="652" y2="652"/><rect fill="none" height="6" style="stroke:#C82930;stroke-width:1.0;" width="6" x="43.5" y="662.6484"/><text fill="#000000" font-family="sans-serif" font-size="14" lengthAdjust="spacing" textLength="120" x="55.5" y="668.9951">behaviourA string</text><rect fill="none" height="6" style="stroke:#C82930;stroke-width:1.0;" width="6" x="43.5" y="678.9453"/><text fill="#000000" font-family="sans-serif" font-size="14" lengthAdjust="spacing" textLength="79" x="55.5" y="685.292">featureA int</text><line style="stroke:#181818;stroke-width:0.5;" x1="36.5" x2="281.5" y1="692.5938" y2="692.5938"/><ellipse cx="46.5" cy="706.2422" fill="#84BE84" rx="3" ry="3" style="stroke:#038048;stroke-width:1.0;"/><text fill="#000000" font-family="sans-serif" font-size="14" lengthAdjust="spacing" textLength="221" x="55.5" y="709.5889">setBehaviourA(behaviour string)</text><ellipse cx="46.5" cy="722.5391" fill="#84BE84" rx="3" ry="3" style="stroke:#038048;stroke-width:1.0;"/><text fill="#000000" font-family="sans-serif" font-size="14" lengthAdjust="spacing" textLength="154" x="55.5" y="725.8857">getBehaviourA() string</text><ellipse cx="46.5" cy="738.8359" fill="#84BE84" rx="3" ry="3" style="stroke:#038048;stroke-width:1.0;"/><text fill="#000000" font-family="sans-serif" font-size="14" lengthAdjust="spacing" textLength="164" x="55.5" y="742.1826">setFeatureA(feature int)</text><ellipse cx="46.5" cy="755.1328" fill="#84BE84" rx="3" ry="3" style="stroke:#038048;stroke-width:1.0;"/><text fill="#000000" font-family="sans-serif" font-size="14" lengthAdjust="spacing" textLength="116" x="55.5" y="758.4795">getFeatureA() int</text></g><!--MD5=[1c24c757525d3ea481e94b13ba55ddf5]
class abstract-factory.concreteProductB--><g id="elem_abstract-factory.concreteProductB"><rect codeLine="23" fill="#F1F1F1" height="145.7813" id="abstract-factory.concreteProductB" rx="2.5" ry="2.5" style="stroke:#181818;stroke-width:0.5;" width="248" x="327" y="620"/><ellipse cx="383.75" cy="636" fill="#7FFFD4" rx="11" ry="11" style="stroke:#181818;stroke-width:1.0;"/><path d="M383.2344,636.5625 Q381.375,635.8594 380.7188,635.0938 Q380.0781,634.3125 380.0781,633 Q380.0781,631.3125 381.1563,630.3438 Q382.2344,629.375 384.1094,629.375 Q384.9688,629.375 385.8125,629.5781 Q386.6719,629.7656 387.5156,630.1563 L387.5156,632.5469 Q386.7344,631.9844 385.9063,631.7031 Q385.0938,631.4063 384.2969,631.4063 Q383.4219,631.4063 382.9375,631.7656 Q382.4688,632.125 382.4688,632.7813 Q382.4688,633.2969 382.8125,633.6406 Q383.1563,633.9688 384.25,634.375 L385.3125,634.7813 Q386.7969,635.3281 387.5,636.2344 Q388.2188,637.1406 388.2188,638.5156 Q388.2188,640.3906 387.1094,641.3125 Q386,642.2344 383.75,642.2344 Q382.8281,642.2344 381.9063,642.0156 Q380.9844,641.7969 380.125,641.375 L380.125,638.8438 Q381.0938,639.5313 382.0156,639.875 Q382.9375,640.2188 383.8281,640.2188 Q384.7344,640.2188 385.2344,639.8125 Q385.7344,639.3906 385.7344,638.6563 Q385.7344,638.0938 385.3906,637.6875 Q385.0625,637.2656 384.4375,637.0156 L383.2344,636.5625 Z " fill="#000000"/><text fill="#000000" font-family="sans-serif" font-size="14" lengthAdjust="spacing" textLength="126" x="404.25" y="640.8467">concreteProductB</text><line style="stroke:#181818;stroke-width:0.5;" x1="328" x2="574" y1="652" y2="652"/><rect fill="none" height="6" style="stroke:#C82930;stroke-width:1.0;" width="6" x="335" y="662.6484"/><text fill="#000000" font-family="sans-serif" font-size="14" lengthAdjust="spacing" textLength="121" x="347" y="668.9951">behaviourB string</text><rect fill="none" height="6" style="stroke:#C82930;stroke-width:1.0;" width="6" x="335" y="678.9453"/><text fill="#000000" font-family="sans-serif" font-size="14" lengthAdjust="spacing" textLength="80" x="347" y="685.292">featureB int</text><line style="stroke:#181818;stroke-width:0.5;" x1="328" x2="574" y1="692.5938" y2="692.5938"/><ellipse cx="338" cy="706.2422" fill="#84BE84" rx="3" ry="3" style="stroke:#038048;stroke-width:1.0;"/><text fill="#000000" font-family="sans-serif" font-size="14" lengthAdjust="spacing" textLength="222" x="347" y="709.5889">setBehaviourB(behaviour string)</text><ellipse cx="338" cy="722.5391" fill="#84BE84" rx="3" ry="3" style="stroke:#038048;stroke-width:1.0;"/><text fill="#000000" font-family="sans-serif" font-size="14" lengthAdjust="spacing" textLength="155" x="347" y="725.8857">getBehaviourB() string</text><ellipse cx="338" cy="738.8359" fill="#84BE84" rx="3" ry="3" style="stroke:#038048;stroke-width:1.0;"/><text fill="#000000" font-family="sans-serif" font-size="14" lengthAdjust="spacing" textLength="165" x="347" y="742.1826">setFeatureB(feature int)</text><ellipse cx="338" cy="755.1328" fill="#84BE84" rx="3" ry="3" style="stroke:#038048;stroke-width:1.0;"/><text fill="#000000" font-family="sans-serif" font-size="14" lengthAdjust="spacing" textLength="117" x="347" y="758.4795">getFeatureB() int</text></g><!--MD5=[78b9e3573ef076e0d1b31c53c8b861ba]
class abstract-factory.iAbstractFactory--><g id="elem_abstract-factory.iAbstractFactory"><rect codeLine="33" fill="#F1F1F1" height="80.5938" id="abstract-factory.iAbstractFactory" rx="2.5" ry="2.5" style="stroke:#181818;stroke-width:0.5;" width="266" x="172" y="165"/><ellipse cx="245.75" cy="181" fill="#B4A7E5" rx="11" ry="11" style="stroke:#181818;stroke-width:1.0;"/><path d="M241.6719,176.7656 L241.6719,174.6094 L249.0625,174.6094 L249.0625,176.7656 L246.5938,176.7656 L246.5938,184.8438 L249.0625,184.8438 L249.0625,187 L241.6719,187 L241.6719,184.8438 L244.1406,184.8438 L244.1406,176.7656 L241.6719,176.7656 Z " fill="#000000"/><text fill="#000000" font-family="sans-serif" font-size="14" font-style="italic" lengthAdjust="spacing" textLength="110" x="266.25" y="185.8467">iAbstractFactory</text><line style="stroke:#181818;stroke-width:0.5;" x1="173" x2="437" y1="197" y2="197"/><line style="stroke:#181818;stroke-width:0.5;" x1="173" x2="437" y1="205" y2="205"/><ellipse cx="183" cy="218.6484" fill="#84BE84" rx="3" ry="3" style="stroke:#038048;stroke-width:1.0;"/><text fill="#000000" font-family="sans-serif" font-size="14" lengthAdjust="spacing" textLength="238" x="192" y="221.9951">makeProductA() iAbstractProductA</text><ellipse cx="183" cy="234.9453" fill="#84BE84" rx="3" ry="3" style="stroke:#038048;stroke-width:1.0;"/><text fill="#000000" font-family="sans-serif" font-size="14" lengthAdjust="spacing" textLength="240" x="192" y="238.292">makeProductB() iAbstractProductB</text></g><!--MD5=[7a147e5efa15393783cbcdc2c1d58ed0]
class abstract-factory.iAbstractProductA--><g id="elem_abstract-factory.iAbstractProductA"><rect codeLine="38" fill="#F1F1F1" height="113.1875" id="abstract-factory.iAbstractProductA" rx="2.5" ry="2.5" style="stroke:#181818;stroke-width:0.5;" width="247" x="35.5" y="447"/><ellipse cx="93.25" cy="463" fill="#B4A7E5" rx="11" ry="11" style="stroke:#181818;stroke-width:1.0;"/><path d="M89.1719,458.7656 L89.1719,456.6094 L96.5625,456.6094 L96.5625,458.7656 L94.0938,458.7656 L94.0938,466.8438 L96.5625,466.8438 L96.5625,469 L89.1719,469 L89.1719,466.8438 L91.6406,466.8438 L91.6406,458.7656 L89.1719,458.7656 Z " fill="#000000"/><text fill="#000000" font-family="sans-serif" font-size="14" font-style="italic" lengthAdjust="spacing" textLength="123" x="113.75" y="467.8467">iAbstractProductA</text><line style="stroke:#181818;stroke-width:0.5;" x1="36.5" x2="281.5" y1="479" y2="479"/><line style="stroke:#181818;stroke-width:0.5;" x1="36.5" x2="281.5" y1="487" y2="487"/><ellipse cx="46.5" cy="500.6484" fill="#84BE84" rx="3" ry="3" style="stroke:#038048;stroke-width:1.0;"/><text fill="#000000" font-family="sans-serif" font-size="14" lengthAdjust="spacing" textLength="221" x="55.5" y="503.9951">setBehaviourA(behaviour string)</text><ellipse cx="46.5" cy="516.9453" fill="#84BE84" rx="3" ry="3" style="stroke:#038048;stroke-width:1.0;"/><text fill="#000000" font-family="sans-serif" font-size="14" lengthAdjust="spacing" textLength="154" x="55.5" y="520.292">getBehaviourA() string</text><ellipse cx="46.5" cy="533.2422" fill="#84BE84" rx="3" ry="3" style="stroke:#038048;stroke-width:1.0;"/><text fill="#000000" font-family="sans-serif" font-size="14" lengthAdjust="spacing" textLength="164" x="55.5" y="536.5889">setFeatureA(feature int)</text><ellipse cx="46.5" cy="549.5391" fill="#84BE84" rx="3" ry="3" style="stroke:#038048;stroke-width:1.0;"/><text fill="#000000" font-family="sans-serif" font-size="14" lengthAdjust="spacing" textLength="116" x="55.5" y="552.8857">getFeatureA() int</text></g><!--MD5=[10f885db695a6d25c8c9699d3b685389]
class abstract-factory.iAbstractProductB--><g id="elem_abstract-factory.iAbstractProductB"><rect codeLine="45" fill="#F1F1F1" height="113.1875" id="abstract-factory.iAbstractProductB" rx="2.5" ry="2.5" style="stroke:#181818;stroke-width:0.5;" width="248" x="327" y="447"/><ellipse cx="384.75" cy="463" fill="#B4A7E5" rx="11" ry="11" style="stroke:#181818;stroke-width:1.0;"/><path d="M380.6719,458.7656 L380.6719,456.6094 L388.0625,456.6094 L388.0625,458.7656 L385.5938,458.7656 L385.5938,466.8438 L388.0625,466.8438 L388.0625,469 L380.6719,469 L380.6719,466.8438 L383.1406,466.8438 L383.1406,458.7656 L380.6719,458.7656 Z " fill="#000000"/><text fill="#000000" font-family="sans-serif" font-size="14" font-style="italic" lengthAdjust="spacing" textLength="124" x="405.25" y="467.8467">iAbstractProductB</text><line style="stroke:#181818;stroke-width:0.5;" x1="328" x2="574" y1="479" y2="479"/><line style="stroke:#181818;stroke-width:0.5;" x1="328" x2="574" y1="487" y2="487"/><ellipse cx="338" cy="500.6484" fill="#84BE84" rx="3" ry="3" style="stroke:#038048;stroke-width:1.0;"/><text fill="#000000" font-family="sans-serif" font-size="14" lengthAdjust="spacing" textLength="222" x="347" y="503.9951">setBehaviourB(behaviour string)</text><ellipse cx="338" cy="516.9453" fill="#84BE84" rx="3" ry="3" style="stroke:#038048;stroke-width:1.0;"/><text fill="#000000" font-family="sans-serif" font-size="14" lengthAdjust="spacing" textLength="155" x="347" y="520.292">getBehaviourB() string</text><ellipse cx="338" cy="533.2422" fill="#84BE84" rx="3" ry="3" style="stroke:#038048;stroke-width:1.0;"/><text fill="#000000" font-family="sans-serif" font-size="14" lengthAdjust="spacing" textLength="165" x="347" y="536.5889">setFeatureB(feature int)</text><ellipse cx="338" cy="549.5391" fill="#84BE84" rx="3" ry="3" style="stroke:#038048;stroke-width:1.0;"/><text fill="#000000" font-family="sans-serif" font-size="14" lengthAdjust="spacing" textLength="117" x="347" y="552.8857">getFeatureB() int</text></g><!--MD5=[62fb470520cc53b6a726d8ae328a3ea5]
class abstract-factory.client--><g id="elem_abstract-factory.client"><rect codeLine="53" fill="#F1F1F1" height="64.2969" id="abstract-factory.client" rx="2.5" ry="2.5" style="stroke:#181818;stroke-width:0.5;" width="256" x="177" y="41"/><ellipse cx="282.25" cy="57" fill="#ADD1B2" rx="11" ry="11" style="stroke:#181818;stroke-width:1.0;"/><path d="M285.2188,62.6406 Q284.6406,62.9375 284,63.0781 Q283.3594,63.2344 282.6563,63.2344 Q280.1563,63.2344 278.8281,61.5938 Q277.5156,59.9375 277.5156,56.8125 Q277.5156,53.6875 278.8281,52.0313 Q280.1563,50.375 282.6563,50.375 Q283.3594,50.375 284,50.5313 Q284.6563,50.6875 285.2188,50.9844 L285.2188,53.7031 Q284.5938,53.125 284,52.8594 Q283.4063,52.5781 282.7813,52.5781 Q281.4375,52.5781 280.75,53.6563 Q280.0625,54.7188 280.0625,56.8125 Q280.0625,58.9063 280.75,59.9844 Q281.4375,61.0469 282.7813,61.0469 Q283.4063,61.0469 284,60.7813 Q284.5938,60.5 285.2188,59.9219 L285.2188,62.6406 Z " fill="#000000"/><text fill="#000000" font-family="sans-serif" font-size="14" lengthAdjust="spacing" textLength="37" x="302.75" y="61.8467">client</text><line style="stroke:#181818;stroke-width:0.5;" x1="178" x2="432" y1="73" y2="73"/><line style="stroke:#181818;stroke-width:0.5;" x1="178" x2="432" y1="81" y2="81"/><ellipse cx="188" cy="94.6484" fill="#84BE84" rx="3" ry="3" style="stroke:#038048;stroke-width:1.0;"/><text fill="#000000" font-family="sans-serif" font-size="14" lengthAdjust="spacing" textLength="230" x="197" y="97.9951">createFactory(...) iAbstractFactory</text></g><!--MD5=[a18177038dd097bcedcb6524ca845734]
link abstract-factory.client to abstract-factory.iAbstractFactory--><g id="link_abstract-factory.client_abstract-factory.iAbstractFactory"><path codeLine="60" d="M305,105.26 C305,121.39 305,141.36 305,159.15 " fill="none" id="abstract-factory.client-to-abstract-factory.iAbstractFactory" style="stroke:#181818;stroke-width:1.0;"/><polygon fill="#181818" points="305,164.59,309,155.59,305,159.59,301,155.59,305,164.59" style="stroke:#181818;stroke-width:1.0;"/></g><!--MD5=[415592d3422a5e627fe483b5fa6eaeed]
reverse link abstract-factory.iAbstractFactory to abstract-factory.concreteFactory1--><g id="link_abstract-factory.iAbstractFactory_abstract-factory.concreteFactory1"><path codeLine="62" d="M247.3,259.96 C230.82,275.24 213.15,291.61 197.73,305.9 " fill="none" id="abstract-factory.iAbstractFactory-backto-abstract-factory.concreteFactory1" style="stroke:#181818;stroke-width:1.0;stroke-dasharray:7.0,7.0;"/><polygon fill="none" points="242.59,254.79,262.02,246.33,252.1,265.06,242.59,254.79" style="stroke:#181818;stroke-width:1.0;"/></g><!--MD5=[09bdff46368bd1ddc77726613c7a95f6]
reverse link abstract-factory.iAbstractFactory to abstract-factory.concreteFactory2--><g id="link_abstract-factory.iAbstractFactory_abstract-factory.concreteFactory2"><path codeLine="63" d="M363.08,259.96 C379.68,275.24 397.46,291.61 412.98,305.9 " fill="none" id="abstract-factory.iAbstractFactory-backto-abstract-factory.concreteFactory2" style="stroke:#181818;stroke-width:1.0;stroke-dasharray:7.0,7.0;"/><polygon fill="none" points="358.24,265.03,348.27,246.33,367.73,254.73,358.24,265.03" style="stroke:#181818;stroke-width:1.0;"/></g><!--MD5=[f62c2513ce17ecebfd9d9b230bac38d2]
link abstract-factory.concreteFactory1 to abstract-factory.iAbstractProductA--><g id="link_abstract-factory.concreteFactory1_abstract-factory.iAbstractProductA"><path codeLine="65" d="M156.02,387.01 C156.45,403.66 156.96,423.4 157.43,441.82 " fill="none" id="abstract-factory.concreteFactory1-to-abstract-factory.iAbstractProductA" style="stroke:#181818;stroke-width:1.0;"/><polygon fill="#181818" points="157.57,446.98,161.3373,437.8802,157.4415,441.9817,153.34,438.0858,157.57,446.98" style="stroke:#181818;stroke-width:1.0;"/></g><!--MD5=[f37f113800e78a13d782a3e8ae4b79cf]
link abstract-factory.concreteFactory1 to abstract-factory.iAbstractProductB--><g id="link_abstract-factory.concreteFactory1_abstract-factory.iAbstractProductB"><path codeLine="66" d="M230.46,387.01 C263.87,404.51 303.84,425.44 340.51,444.64 " fill="none" id="abstract-factory.concreteFactory1-to-abstract-factory.iAbstractProductB" style="stroke:#181818;stroke-width:1.0;"/><polygon fill="#181818" points="344.97,446.98,338.8461,439.2665,340.5386,444.6642,335.1409,446.3567,344.97,446.98" style="stroke:#181818;stroke-width:1.0;"/></g><!--MD5=[779a230a3ea5cb9c7db09adf9676001b]
link abstract-factory.concreteFactory2 to abstract-factory.iAbstractProductA--><g id="link_abstract-factory.concreteFactory2_abstract-factory.iAbstractProductA"><path codeLine="67" d="M380.29,387.01 C346.76,404.51 306.66,425.44 269.86,444.64 " fill="none" id="abstract-factory.concreteFactory2-to-abstract-factory.iAbstractProductA" style="stroke:#181818;stroke-width:1.0;"/><polygon fill="#181818" points="265.39,446.98,275.2191,446.3567,269.8214,444.6642,271.5139,439.2665,265.39,446.98" style="stroke:#181818;stroke-width:1.0;"/></g><!--MD5=[f95e3f0cc26cccae5c78478af845fb5e]
link abstract-factory.concreteFactory2 to abstract-factory.iAbstractProductB--><g id="link_abstract-factory.concreteFactory2_abstract-factory.iAbstractProductB"><path codeLine="68" d="M454.73,387.01 C454.19,403.66 453.55,423.4 452.96,441.82 " fill="none" id="abstract-factory.concreteFactory2-to-abstract-factory.iAbstractProductB" style="stroke:#181818;stroke-width:1.0;"/><polygon fill="#181818" points="452.79,446.98,457.096,438.1223,452.9613,441.9829,449.1007,437.8482,452.79,446.98" style="stroke:#181818;stroke-width:1.0;"/></g><!--MD5=[96d22760afce6dd1ddc55ba97408ffbc]
reverse link abstract-factory.iAbstractProductA to abstract-factory.concreteProductA--><g id="link_abstract-factory.iAbstractProductA_abstract-factory.concreteProductA"><path codeLine="70" d="M159,580.68 C159,593.59 159,606.96 159,619.77 " fill="none" id="abstract-factory.iAbstractProductA-backto-abstract-factory.concreteProductA" style="stroke:#181818;stroke-width:1.0;stroke-dasharray:7.0,7.0;"/><polygon fill="none" points="152,580.25,159,560.25,166,580.25,152,580.25" style="stroke:#181818;stroke-width:1.0;"/></g><!--MD5=[aa60886ec5d4982221100ff35202a832]
reverse link abstract-factory.iAbstractProductB to abstract-factory.concreteProductB--><g id="link_abstract-factory.iAbstractProductB_abstract-factory.concreteProductB"><path codeLine="71" d="M451,580.68 C451,593.59 451,606.96 451,619.77 " fill="none" id="abstract-factory.iAbstractProductB-backto-abstract-factory.concreteProductB" style="stroke:#181818;stroke-width:1.0;stroke-dasharray:7.0,7.0;"/><polygon fill="none" points="444,580.25,451,560.25,458,580.25,444,580.25" style="stroke:#181818;stroke-width:1.0;"/></g><!--MD5=[75e10b5bac3ca91e6a94ea4e4bc52cc5]
@startuml go-dsgn-pttrn-abstract-factory

namespace abstract-factory {
    class concreteFactory1 << (S,Aquamarine) >> {
        + makeProductA() iAbstractProductA
        + makeProductB() iAbstractProductB

    }
    class concreteFactory2 << (S,Aquamarine) >> {
        + makeProductA() iAbstractProductA
        + makeProductB() iAbstractProductB

    }
    class concreteProductA << (S,Aquamarine) >> {
        - behaviourA string
        - featureA int

        + setBehaviourA(behaviour string) 
        + getBehaviourA() string
        + setFeatureA(feature int) 
        + getFeatureA() int

    }
    class concreteProductB << (S,Aquamarine) >> {
        - behaviourB string
        - featureB int

        + setBehaviourB(behaviour string) 
        + getBehaviourB() string
        + setFeatureB(feature int) 
        + getFeatureB() int

    }
    interface iAbstractFactory  {
        + makeProductA() iAbstractProductA
        + makeProductB() iAbstractProductB

    }
    interface iAbstractProductA  {
        + setBehaviourA(behaviour string) 
        + getBehaviourA() string
        + setFeatureA(feature int) 
        + getFeatureA() int

    }
    interface iAbstractProductB  {
        + setBehaviourB(behaviour string) 
        + getBehaviourB() string
        + setFeatureB(feature int) 
        + getFeatureB() int

    }

    class client {

        + createFactory(...) iAbstractFactory
    }

}

"abstract-factory.client" - -> "abstract-factory.iAbstractFactory"

"abstract-factory.iAbstractFactory" <|.. "abstract-factory.concreteFactory1"
"abstract-factory.iAbstractFactory" <|.. "abstract-factory.concreteFactory2"

"abstract-factory.concreteFactory1" - -> "abstract-factory.iAbstractProductA"
"abstract-factory.concreteFactory1" - -> "abstract-factory.iAbstractProductB"
"abstract-factory.concreteFactory2" - -> "abstract-factory.iAbstractProductA"
"abstract-factory.concreteFactory2" - -> "abstract-factory.iAbstractProductB"

"abstract-factory.iAbstractProductA" <|.. "abstract-factory.concreteProductA"
"abstract-factory.iAbstractProductB" <|.. "abstract-factory.concreteProductB"

@enduml

PlantUML version 1.2022.13(Sat Nov 19 13:22:17 UTC 2022)
(GPL source distribution)
Java Runtime: OpenJDK Runtime Environment
JVM: OpenJDK 64-Bit Server VM
Default Encoding: UTF-8
Language: en
Country: null
--></g></svg>