<?xml version="1.0" encoding="UTF-8" standalone="no"?><svg xmlns="http://www.w3.org/2000/svg" xmlns:xlink="http://www.w3.org/1999/xlink" contentStyleType="text/css" height="579px" preserveAspectRatio="none" style="width:580px;height:579px;background:#FFFFFF;" version="1.1" viewBox="0 0 580 579" width="580px" zoomAndPan="magnify"><defs/><g><!--MD5=[359537f366b8bb5eb5abd913e65f0a43]
cluster abstract-factory--><g id="cluster_abstract-factory"><path d="M8.5,162 L136.5,162 A3.75,3.75 0 0 1 139,164.5 L146,184.2969 L554.5,184.2969 A2.5,2.5 0 0 1 557,186.7969 L557,569.5 A2.5,2.5 0 0 1 554.5,572 L8.5,572 A2.5,2.5 0 0 1 6,569.5 L6,164.5 A2.5,2.5 0 0 1 8.5,162 " fill="none" style="stroke:#000000;stroke-width:1.5;"/><line style="stroke:#000000;stroke-width:1.5;" x1="6" x2="146" y1="184.2969" y2="184.2969"/><text fill="#000000" font-family="sans-serif" font-size="14" font-weight="bold" lengthAdjust="spacing" textLength="127" x="10" y="176.9951">abstract-factory</text></g><!--MD5=[e93776c1f719cbff8148f72ed62fb523]
class abstract-factory.iAbstractProduct--><g id="elem_abstract-factory.iAbstractProduct"><rect codeLine="7" fill="#F1F1F1" height="129.4844" id="abstract-factory.iAbstractProduct" rx="2.5" ry="2.5" style="stroke:#181818;stroke-width:0.5;" width="238" x="303" y="197"/><ellipse cx="360.75" cy="213" fill="#B4A7E5" rx="11" ry="11" style="stroke:#181818;stroke-width:1.0;"/><path d="M356.6719,208.7656 L356.6719,206.6094 L364.0625,206.6094 L364.0625,208.7656 L361.5938,208.7656 L361.5938,216.8438 L364.0625,216.8438 L364.0625,219 L356.6719,219 L356.6719,216.8438 L359.1406,216.8438 L359.1406,208.7656 L356.6719,208.7656 Z " fill="#000000"/><text fill="#000000" font-family="sans-serif" font-size="14" font-style="italic" lengthAdjust="spacing" textLength="114" x="381.25" y="217.8467">iAbstractProduct</text><line style="stroke:#181818;stroke-width:0.5;" x1="304" x2="540" y1="229" y2="229"/><ellipse cx="314" cy="242.6484" fill="#84BE84" rx="3" ry="3" style="stroke:#038048;stroke-width:1.0;"/><text fill="#000000" font-family="sans-serif" font-size="14" lengthAdjust="spacing" textLength="212" x="323" y="245.9951">setBehaviour(behaviour string)</text><ellipse cx="314" cy="258.9453" fill="#84BE84" rx="3" ry="3" style="stroke:#038048;stroke-width:1.0;"/><text fill="#000000" font-family="sans-serif" font-size="14" lengthAdjust="spacing" textLength="145" x="323" y="262.292">getBehaviour() string</text><line style="stroke:#181818;stroke-width:1.0;stroke-dasharray:1.0,2.0;" x1="304" x2="540" y1="269.5938" y2="269.5938"/><ellipse cx="314" cy="283.2422" fill="#84BE84" rx="3" ry="3" style="stroke:#038048;stroke-width:1.0;"/><text fill="#000000" font-family="sans-serif" font-size="14" lengthAdjust="spacing" textLength="155" x="323" y="286.5889">setFeature(feature int)</text><ellipse cx="314" cy="299.5391" fill="#84BE84" rx="3" ry="3" style="stroke:#038048;stroke-width:1.0;"/><text fill="#000000" font-family="sans-serif" font-size="14" lengthAdjust="spacing" textLength="107" x="323" y="302.8857">getFeature() int</text><text fill="#000000" font-family="sans-serif" font-size="14" lengthAdjust="spacing" textLength="4" x="323" y="319.1826"> </text></g><!--MD5=[78b9e3573ef076e0d1b31c53c8b861ba]
class abstract-factory.iAbstractFactory--><g id="elem_abstract-factory.iAbstractFactory"><rect codeLine="15" fill="#F1F1F1" height="64.2969" id="abstract-factory.iAbstractFactory" rx="2.5" ry="2.5" style="stroke:#181818;stroke-width:0.5;" width="246" x="22" y="229.5"/><ellipse cx="85.75" cy="245.5" fill="#B4A7E5" rx="11" ry="11" style="stroke:#181818;stroke-width:1.0;"/><path d="M81.6719,241.2656 L81.6719,239.1094 L89.0625,239.1094 L89.0625,241.2656 L86.5938,241.2656 L86.5938,249.3438 L89.0625,249.3438 L89.0625,251.5 L81.6719,251.5 L81.6719,249.3438 L84.1406,249.3438 L84.1406,241.2656 L81.6719,241.2656 Z " fill="#000000"/><text fill="#000000" font-family="sans-serif" font-size="14" font-style="italic" lengthAdjust="spacing" textLength="110" x="106.25" y="250.3467">iAbstractFactory</text><line style="stroke:#181818;stroke-width:0.5;" x1="23" x2="267" y1="261.5" y2="261.5"/><line style="stroke:#181818;stroke-width:0.5;" x1="23" x2="267" y1="269.5" y2="269.5"/><ellipse cx="33" cy="283.1484" fill="#84BE84" rx="3" ry="3" style="stroke:#038048;stroke-width:1.0;"/><text fill="#000000" font-family="sans-serif" font-size="14" lengthAdjust="spacing" textLength="220" x="42" y="286.4951">makeProduct() iAbstractProduct</text></g><!--MD5=[9801d5ca025bb98188b0acfd91cf4eef]
class abstract-factory.concreteProduct--><g id="elem_abstract-factory.concreteProduct"><rect codeLine="19" fill="#F1F1F1" height="170.0781" id="abstract-factory.concreteProduct" rx="2.5" ry="2.5" style="stroke:#181818;stroke-width:0.5;" width="238" x="303" y="386"/><ellipse cx="359.75" cy="402" fill="#7FFFD4" rx="11" ry="11" style="stroke:#181818;stroke-width:1.0;"/><path d="M359.2344,402.5625 Q357.375,401.8594 356.7188,401.0938 Q356.0781,400.3125 356.0781,399 Q356.0781,397.3125 357.1563,396.3438 Q358.2344,395.375 360.1094,395.375 Q360.9688,395.375 361.8125,395.5781 Q362.6719,395.7656 363.5156,396.1563 L363.5156,398.5469 Q362.7344,397.9844 361.9063,397.7031 Q361.0938,397.4063 360.2969,397.4063 Q359.4219,397.4063 358.9375,397.7656 Q358.4688,398.125 358.4688,398.7813 Q358.4688,399.2969 358.8125,399.6406 Q359.1563,399.9688 360.25,400.375 L361.3125,400.7813 Q362.7969,401.3281 363.5,402.2344 Q364.2188,403.1406 364.2188,404.5156 Q364.2188,406.3906 363.1094,407.3125 Q362,408.2344 359.75,408.2344 Q358.8281,408.2344 357.9063,408.0156 Q356.9844,407.7969 356.125,407.375 L356.125,404.8438 Q357.0938,405.5313 358.0156,405.875 Q358.9375,406.2188 359.8281,406.2188 Q360.7344,406.2188 361.2344,405.8125 Q361.7344,405.3906 361.7344,404.6563 Q361.7344,404.0938 361.3906,403.6875 Q361.0625,403.2656 360.4375,403.0156 L359.2344,402.5625 Z " fill="#000000"/><text fill="#000000" font-family="sans-serif" font-size="14" lengthAdjust="spacing" textLength="116" x="380.25" y="406.8467">concreteProduct</text><line style="stroke:#181818;stroke-width:0.5;" x1="304" x2="540" y1="418" y2="418"/><rect fill="none" height="6" style="stroke:#C82930;stroke-width:1.0;" width="6" x="311" y="428.6484"/><text fill="#000000" font-family="sans-serif" font-size="14" lengthAdjust="spacing" textLength="111" x="323" y="434.9951">behaviour string</text><rect fill="none" height="6" style="stroke:#C82930;stroke-width:1.0;" width="6" x="311" y="444.9453"/><text fill="#000000" font-family="sans-serif" font-size="14" lengthAdjust="spacing" textLength="70" x="323" y="451.292">feature int</text><line style="stroke:#181818;stroke-width:1.0;" x1="304" x2="540" y1="458.5938" y2="458.5938"/><ellipse cx="314" cy="472.2422" fill="#84BE84" rx="3" ry="3" style="stroke:#038048;stroke-width:1.0;"/><text fill="#000000" font-family="sans-serif" font-size="14" lengthAdjust="spacing" textLength="212" x="323" y="475.5889">setBehaviour(behaviour string)</text><ellipse cx="314" cy="488.5391" fill="#84BE84" rx="3" ry="3" style="stroke:#038048;stroke-width:1.0;"/><text fill="#000000" font-family="sans-serif" font-size="14" lengthAdjust="spacing" textLength="145" x="323" y="491.8857">getBehaviour() string</text><line style="stroke:#181818;stroke-width:1.0;stroke-dasharray:1.0,2.0;" x1="304" x2="540" y1="499.1875" y2="499.1875"/><ellipse cx="314" cy="512.8359" fill="#84BE84" rx="3" ry="3" style="stroke:#038048;stroke-width:1.0;"/><text fill="#000000" font-family="sans-serif" font-size="14" lengthAdjust="spacing" textLength="155" x="323" y="516.1826">setFeature(feature int)</text><ellipse cx="314" cy="529.1328" fill="#84BE84" rx="3" ry="3" style="stroke:#038048;stroke-width:1.0;"/><text fill="#000000" font-family="sans-serif" font-size="14" lengthAdjust="spacing" textLength="107" x="323" y="532.4795">getFeature() int</text><text fill="#000000" font-family="sans-serif" font-size="14" lengthAdjust="spacing" textLength="4" x="323" y="548.7764"> </text></g><!--MD5=[450f67c793b5fc856f9ea5f48e240f3b]
class abstract-factory.concreteFactory--><g id="elem_abstract-factory.concreteFactory"><rect codeLine="30" fill="#F1F1F1" height="80.5938" id="abstract-factory.concreteFactory" rx="2.5" ry="2.5" style="stroke:#181818;stroke-width:0.5;" width="246" x="22" y="430.5"/><ellipse cx="84.75" cy="446.5" fill="#7FFFD4" rx="11" ry="11" style="stroke:#181818;stroke-width:1.0;"/><path d="M84.2344,447.0625 Q82.375,446.3594 81.7188,445.5938 Q81.0781,444.8125 81.0781,443.5 Q81.0781,441.8125 82.1563,440.8438 Q83.2344,439.875 85.1094,439.875 Q85.9688,439.875 86.8125,440.0781 Q87.6719,440.2656 88.5156,440.6563 L88.5156,443.0469 Q87.7344,442.4844 86.9063,442.2031 Q86.0938,441.9063 85.2969,441.9063 Q84.4219,441.9063 83.9375,442.2656 Q83.4688,442.625 83.4688,443.2813 Q83.4688,443.7969 83.8125,444.1406 Q84.1563,444.4688 85.25,444.875 L86.3125,445.2813 Q87.7969,445.8281 88.5,446.7344 Q89.2188,447.6406 89.2188,449.0156 Q89.2188,450.8906 88.1094,451.8125 Q87,452.7344 84.75,452.7344 Q83.8281,452.7344 82.9063,452.5156 Q81.9844,452.2969 81.125,451.875 L81.125,449.3438 Q82.0938,450.0313 83.0156,450.375 Q83.9375,450.7188 84.8281,450.7188 Q85.7344,450.7188 86.2344,450.3125 Q86.7344,449.8906 86.7344,449.1563 Q86.7344,448.5938 86.3906,448.1875 Q86.0625,447.7656 85.4375,447.5156 L84.2344,447.0625 Z " fill="#000000"/><text fill="#000000" font-family="sans-serif" font-size="14" lengthAdjust="spacing" textLength="112" x="105.25" y="451.3467">concreteFactory</text><line style="stroke:#181818;stroke-width:0.5;" x1="23" x2="267" y1="462.5" y2="462.5"/><rect fill="none" height="6" style="stroke:#C82930;stroke-width:1.0;" width="6" x="30" y="473.1484"/><text fill="#000000" font-family="sans-serif" font-size="14" lengthAdjust="spacing" textLength="150" x="42" y="479.4951">specialAttribute string</text><line style="stroke:#181818;stroke-width:0.5;" x1="23" x2="267" y1="486.7969" y2="486.7969"/><ellipse cx="33" cy="500.4453" fill="#84BE84" rx="3" ry="3" style="stroke:#038048;stroke-width:1.0;"/><text fill="#000000" font-family="sans-serif" font-size="14" lengthAdjust="spacing" textLength="220" x="42" y="503.792">makeProduct() iAbstractProduct</text></g><!--MD5=[ed6624c6556d5e7b1bd23032162d20b7]
class Client--><g id="elem_Client"><rect codeLine="2" fill="#F1F1F1" height="26.2969" id="Client" rx="2.5" ry="2.5" style="stroke:#4169E1;stroke-width:2.0;" width="45" x="260.5" y="58.5"/><text fill="#000000" font-family="sans-serif" font-size="14" lengthAdjust="spacing" textLength="39" x="263.5" y="76.4951">Client</text></g><g id="elem_N1"><path d="M341,6 L341,137.0625 L573,137.0625 L573,16 L563,6 L341,6 " fill="#FEFFDD" style="stroke:#181818;stroke-width:0.5;"/><path d="M563,6 L563,16 L573,16 L563,6 " fill="#FEFFDD" style="stroke:#181818;stroke-width:1.0;"/><text fill="#4169E1" font-family="sans-serif" font-size="13" font-weight="bold" lengthAdjust="spacing" textLength="123" x="347" y="23.0669">Abstract Factory</text><text fill="#000000" font-family="sans-serif" font-size="13" lengthAdjust="spacing" textLength="4" x="347" y="38.1997"> </text><text fill="#000000" font-family="sans-serif" font-size="13" font-weight="bold" lengthAdjust="spacing" textLength="40" x="347" y="53.3325">Type:</text><text fill="#000000" font-family="sans-serif" font-size="13" lengthAdjust="spacing" textLength="65" x="391" y="53.3325">Creational</text><text fill="#000000" font-family="sans-serif" font-size="13" lengthAdjust="spacing" textLength="4" x="347" y="68.4653"> </text><text fill="#000000" font-family="sans-serif" font-size="13" lengthAdjust="spacing" textLength="211" x="347" y="83.5981">Provides an interface for creating</text><text fill="#000000" font-family="sans-serif" font-size="13" lengthAdjust="spacing" textLength="204" x="347" y="98.731">families of related or dependent</text><text fill="#000000" font-family="sans-serif" font-size="13" lengthAdjust="spacing" textLength="196" x="347" y="113.8638">objects without specifying their</text><text fill="#000000" font-family="sans-serif" font-size="13" lengthAdjust="spacing" textLength="96" x="347" y="128.9966">concrete class.</text></g><!--MD5=[57336f676b846e5a2ac681d512282cb3]
link Client to abstract-factory.iAbstractFactory--><g id="link_Client_abstract-factory.iAbstractFactory"><path codeLine="37" d="M274.16,84.55 C253.64,112.5 202.16,182.63 170.74,225.43 " fill="none" id="Client-to-abstract-factory.iAbstractFactory" style="stroke:#4169E1;stroke-width:2.0;stroke-dasharray:7.0,7.0;"/><polygon fill="#4169E1" points="167.77,229.49,176.3119,224.5873,170.7219,225.4544,169.8548,219.8643,167.77,229.49" style="stroke:#4169E1;stroke-width:2.0;"/></g><!--MD5=[cb48f161b3e82d8ba56d1ef1b645cc7f]
link Client to abstract-factory.iAbstractProduct--><g id="link_Client_abstract-factory.iAbstractProduct"><path codeLine="38" d="M290.19,84.63 C298.1,97.79 311.38,119.27 324,137 C337.13,155.45 352.01,174.88 366.14,192.72 " fill="none" id="Client-to-abstract-factory.iAbstractProduct" style="stroke:#4169E1;stroke-width:2.0;stroke-dasharray:7.0,7.0;"/><polygon fill="#4169E1" points="369.33,196.74,366.8781,187.2012,366.2258,192.8204,360.6066,192.168,369.33,196.74" style="stroke:#4169E1;stroke-width:2.0;"/></g><!--MD5=[de3a74455e542ee0e7f9f9573c1f3a6f]
reverse link abstract-factory.iAbstractFactory to abstract-factory.concreteFactory--><g id="link_abstract-factory.iAbstractFactory_abstract-factory.concreteFactory"><path codeLine="40" d="M145,313.73 C145,349.68 145,397.06 145,430.18 " fill="none" id="abstract-factory.iAbstractFactory-backto-abstract-factory.concreteFactory" style="stroke:#181818;stroke-width:1.0;stroke-dasharray:7.0,7.0;"/><polygon fill="none" points="138,313.56,145,293.56,152,313.56,138,313.56" style="stroke:#181818;stroke-width:1.0;"/></g><!--MD5=[12bbca0f74e6106a6959644adf77d58e]
reverse link abstract-factory.iAbstractProduct to abstract-factory.concreteProduct--><g id="link_abstract-factory.iAbstractProduct_abstract-factory.concreteProduct"><path codeLine="41" d="M422,346.19 C422,359.24 422,372.74 422,385.8 " fill="none" id="abstract-factory.iAbstractProduct-backto-abstract-factory.concreteProduct" style="stroke:#181818;stroke-width:1.0;stroke-dasharray:7.0,7.0;"/><polygon fill="none" points="415,346.17,422,326.17,429,346.17,415,346.17" style="stroke:#181818;stroke-width:1.0;"/></g><!--MD5=[3150dd93492aa505ea795e422b775a26]
@startuml abstract-factory

class Client #line.bold:royalBlue
hide Client members
hide Client circle

namespace abstract-factory {
    interface iAbstractProduct  {
        + setBehaviour(behaviour string) 
        + getBehaviour() string
        ..
        + setFeature(feature int) 
        + getFeature() int

    }
    interface iAbstractFactory  {
        + makeProduct() iAbstractProduct

    }
    class concreteProduct << (S,Aquamarine) >> {
        - behaviour string
        - feature int
        - -
        + setBehaviour(behaviour string) 
        + getBehaviour() string
        ..
        + setFeature(feature int) 
        + getFeature() int

    }
    class concreteFactory << (S,Aquamarine) >> {
        - specialAttribute string

        + makeProduct() iAbstractProduct
    }
}

"Client" -[dashed,thickness=2,#royalBlue]-> "abstract-factory.iAbstractFactory"
"Client" -[dashed,thickness=2,#royalBlue]-> "abstract-factory.iAbstractProduct"

"abstract-factory.iAbstractFactory" <|.. "abstract-factory.concreteFactory"
"abstract-factory.iAbstractProduct" <|.. "abstract-factory.concreteProduct"

note as N1
    <b><color:royalBlue>Abstract Factory</color></b>

    <b>Type:</b> Creational

    Provides an interface for creating
    families of related or dependent
    objects without specifying their
    concrete class.
end note

/' note right of abstract-factory.iAbstractFactory::iAbstractProduct
    An abstract factory
    returns an abstract
    pointer to a concrete 
    object.
end note '/

@enduml

@startuml abstract-factory

class Client #line.bold:royalBlue
hide Client members
hide Client circle

namespace abstract-factory {
    interface iAbstractProduct  {
        + setBehaviour(behaviour string) 
        + getBehaviour() string
        ..
        + setFeature(feature int) 
        + getFeature() int

    }
    interface iAbstractFactory  {
        + makeProduct() iAbstractProduct

    }
    class concreteProduct << (S,Aquamarine) >> {
        - behaviour string
        - feature int
        - -
        + setBehaviour(behaviour string) 
        + getBehaviour() string
        ..
        + setFeature(feature int) 
        + getFeature() int

    }
    class concreteFactory << (S,Aquamarine) >> {
        - specialAttribute string

        + makeProduct() iAbstractProduct
    }
}

"Client" -[dashed,thickness=2,#royalBlue]-> "abstract-factory.iAbstractFactory"
"Client" -[dashed,thickness=2,#royalBlue]-> "abstract-factory.iAbstractProduct"

"abstract-factory.iAbstractFactory" <|.. "abstract-factory.concreteFactory"
"abstract-factory.iAbstractProduct" <|.. "abstract-factory.concreteProduct"

note as N1
    <b><color:royalBlue>Abstract Factory</color></b>

    <b>Type:</b> Creational

    Provides an interface for creating
    families of related or dependent
    objects without specifying their
    concrete class.
end note


@enduml

PlantUML version 1.2022.13(Sat Nov 19 13:22:17 UTC 2022)
(GPL source distribution)
Java Runtime: OpenJDK Runtime Environment
JVM: OpenJDK 64-Bit Server VM
Default Encoding: UTF-8
Language: en
Country: null
--></g></svg>